<svg height="1024pt" preserveAspectRatio="xMidYMid meet" viewBox="0 0 1024 1024" width="1024pt" xmlns="http://www.w3.org/2000/svg"><g transform="matrix(.1 0 0 -.1 0 1024)"><path d="m0 5120v-5120h5120 5120v5120 5120h-5120-5120zm4610 3741c356-39 552-171 615-416 21-81 35-257 35-445 0-300-27-471-91-571-64-101-190-192-305-220-59-14-79-29-40-29 15 0 56-7 90-16 200-51 317-168 345-344 7-41 11-347 11-832v-768h-400-400l-2 739c-3 732-3 740-24 768-38 51-65 58-241 61l-163 4v-786-786h-405-405v1831 1831l638-5c368-3 681-10 742-16zm2408-333 2-348h-365-365l2-307 3-308 338-3 337-2-2-338-3-337-337-3-338-2v-485-485h365 365v-345-345h-755-755v1823c0 1003 3 1827 7 1830 3 4 342 6 752 5l746-3zm1707 2v-345l-362-3-363-2v-310-310h335 335v-340-340h-335-335v-485-485h365 365l-2-342-3-343-752-3-753-2v1830 1830l753-2 752-3zm-5667-7-3-348-367-3-368-2v-305-305h340 340l-2-347-3-348-337-3-338-2v-820-820h-400-400v1825 1825h770 770zm-503-3513c131-18 234-48 335-97 79-38 108-59 175-127 93-94 135-169 159-288 13-62 16-148 16-428v-350h-369-369l-4 253c-3 230-5 255-23 285-32 53-93 76-200 77-110 0-158-20-189-81-21-39-21-50-24-1065l-2-1026 21-27c39-49 94-70 189-71 109 0 170 26 203 89 21 39 22 55 25 324l4 282h-121-121v290 290h490 490v-682c0-562-3-695-15-753-55-261-268-437-605-501-132-25-494-30-644-10-382 54-616 234-684 526-16 69-17 172-17 1285v1210l22 83c83 312 328 479 763 522 106 11 389 5 495-10zm2395-325v-345h-365-365v-310-310l338-2 337-3 3-337 2-338h-340-340v-490-490h365 365v-340-340h-755-755v1825 1825h755 755zm1710 0v-345h-365-365v-310-310h335 335v-340-340h-335-335v-490-490h365 365v-340-340h-755-755v1825 1825h755 755zm988-495 3-835 227 820c125 451 231 828 235 838 6 16 34 17 392 17 301 0 385-3 385-12 0-7-123-402-274-877l-273-863 44-137c25-75 164-497 309-939 145-441 264-807 264-813s-150-8-412-7l-413 3-240 849-240 850-3-852-2-852h-385-385v1825 1825l383-2 382-3z"/><path d="m4040 7880v-420h163c185 0 219 10 249 70 16 31 18 70 18 355 0 303-1 322-20 353-33 53-68 62-250 62h-160z"/></g></svg>